<?xml version="1.0" encoding="UTF-8" ?>
<!DOCTYPE svg PUBLIC "-//W3C//DTD SVG 1.1//EN" "http://www.w3.org/Graphics/SVG/1.1/DTD/svg11.dtd">
<svg width="942pt" height="832pt" viewBox="0 0 942 832" version="1.1" xmlns="http://www.w3.org/2000/svg">
<g id="#ed1a3bff">
<path fill="#ed1a3b" opacity="1.00" d=" M 574.90 0.00 L 628.19 0.00 C 642.11 1.57 656.11 2.49 669.99 4.52 C 712.32 10.23 754.13 20.23 794.20 35.11 C 794.59 102.92 794.36 170.73 794.36 238.53 C 768.02 221.53 741.05 205.26 712.22 192.81 C 678.99 178.12 643.55 166.77 606.95 165.92 C 594.80 166.03 581.23 167.14 571.95 175.94 C 565.30 181.59 563.69 191.44 566.33 199.47 C 568.80 206.35 574.14 211.68 578.94 217.01 C 589.07 228.07 602.45 235.18 615.08 242.92 C 632.49 253.24 649.20 264.68 665.86 276.17 C 682.44 286.87 697.54 299.66 712.51 312.48 C 716.88 316.44 721.65 319.99 725.63 324.37 C 731.48 330.82 737.87 336.79 743.37 343.56 C 755.10 357.25 764.80 372.52 774.04 387.95 C 783.46 405.75 790.03 425.05 793.52 444.87 C 794.45 449.71 794.49 454.68 795.76 459.47 C 796.90 463.88 796.39 468.47 796.48 472.98 C 796.38 479.63 797.07 486.38 795.43 492.91 C 793.43 506.73 790.99 520.63 785.79 533.66 C 779.88 549.18 770.08 562.83 759.46 575.46 C 741.18 597.52 715.69 612.39 689.00 622.00 C 666.50 629.96 642.71 633.68 618.97 635.26 C 609.25 635.23 599.55 636.75 589.86 635.67 C 567.04 635.07 544.20 632.85 521.91 627.80 C 538.31 617.79 554.18 606.38 566.59 591.55 C 575.52 582.67 581.52 571.48 587.71 560.65 C 597.37 541.49 603.65 520.45 604.72 498.95 C 605.14 490.96 604.47 482.97 603.95 474.99 C 601.85 449.52 592.36 424.96 578.23 403.77 C 572.60 394.94 565.19 387.47 558.34 379.61 C 550.49 370.73 541.02 363.58 532.14 355.81 C 525.07 349.70 517.02 344.93 509.47 339.47 C 501.34 333.66 492.89 328.30 484.98 322.19 C 479.10 317.84 472.79 314.13 466.44 310.53 C 451.38 301.24 436.84 291.08 423.21 279.78 C 415.81 274.24 409.40 267.53 403.26 260.65 C 390.59 246.00 379.43 229.80 372.04 211.82 C 370.33 207.61 368.34 203.51 366.89 199.20 C 362.91 187.54 361.35 175.22 360.71 162.97 C 360.42 157.92 361.12 152.89 361.54 147.87 C 362.82 134.56 364.87 121.03 370.78 108.90 C 380.44 84.45 397.65 63.26 418.99 48.03 C 430.05 40.45 441.41 33.22 453.61 27.62 C 477.14 16.58 502.57 10.32 528.06 5.77 C 543.56 2.96 559.27 1.74 574.90 0.00 Z" />
</g>
<g id="#94958bff">
<path fill="#94958b" opacity="1.00" d=" M 263.95 28.59 C 316.45 12.23 372.90 13.64 426.42 24.08 C 423.20 26.37 419.72 28.23 416.35 30.27 C 398.50 41.58 382.64 56.26 371.02 73.99 C 359.57 89.23 351.96 107.08 347.39 125.52 C 342.29 144.50 342.20 164.42 344.55 183.81 C 346.44 198.45 350.83 212.72 357.01 226.10 C 360.25 232.66 363.36 239.36 367.78 245.23 C 375.62 255.91 383.32 266.81 392.81 276.12 C 408.97 292.23 427.73 305.39 446.38 318.42 C 453.18 322.99 459.40 328.41 466.48 332.59 C 482.56 341.81 497.95 352.18 512.92 363.09 C 538.64 381.02 558.67 406.19 573.43 433.65 C 582.63 453.02 587.72 474.55 587.06 496.04 C 585.64 516.12 582.08 536.56 572.45 554.47 C 564.58 568.08 555.20 580.93 543.67 591.68 C 530.87 604.14 515.44 613.43 499.74 621.72 C 467.54 638.01 431.69 645.18 396.14 649.61 C 384.73 649.84 373.34 650.50 361.95 651.28 C 336.11 651.64 310.22 651.15 284.51 648.32 C 249.74 643.93 215.27 636.72 181.82 626.21 C 172.45 622.74 162.52 620.78 153.55 616.28 C 153.70 548.84 153.50 481.40 153.66 413.95 C 170.11 424.04 186.33 434.55 203.36 443.66 C 221.10 453.16 239.44 461.56 258.24 468.77 C 282.02 477.36 306.66 484.47 332.02 486.00 C 344.08 486.69 356.60 486.63 367.97 482.02 C 377.30 478.78 383.75 468.83 382.91 458.99 C 382.43 450.29 377.34 442.67 371.36 436.67 C 364.79 430.49 358.12 424.33 350.41 419.57 C 331.48 407.85 312.40 396.36 293.95 383.88 C 284.76 377.84 276.09 371.06 266.96 364.95 C 259.23 359.48 252.00 353.35 244.72 347.32 C 213.91 322.09 186.89 291.28 170.13 254.89 C 162.08 240.23 157.50 223.94 154.64 207.54 C 153.39 201.10 153.65 194.51 153.60 187.98 C 153.62 176.65 153.54 165.32 153.67 153.99 C 154.97 141.03 158.34 128.30 163.31 116.27 C 165.54 110.54 169.09 105.47 172.13 100.16 C 178.86 88.63 186.85 77.79 196.31 68.36 C 215.20 49.85 238.98 36.91 263.95 28.59 Z" />
</g>
<g id="#000000ff">
<path fill="#000000" opacity="1.00" d=" M 30.70 689.76 C 50.76 684.34 72.03 687.44 91.63 693.34 C 91.62 700.98 91.63 708.63 91.57 716.27 C 78.99 710.30 65.02 706.56 51.01 707.76 C 44.98 708.16 38.55 709.66 34.25 714.22 C 30.60 717.72 29.76 723.22 30.62 728.02 C 31.89 733.39 36.19 737.44 40.79 740.16 C 55.56 748.74 73.15 752.39 86.16 763.93 C 99.84 775.69 100.80 798.13 90.20 812.19 C 83.70 821.03 73.28 826.00 62.88 828.63 C 57.41 830.10 51.65 830.12 46.27 832.00 L 30.50 832.00 C 28.12 831.09 25.66 830.43 23.12 830.23 C 15.72 829.49 8.47 827.65 1.47 825.19 C 1.36 817.43 1.44 809.68 1.47 801.93 C 14.90 807.55 29.62 811.18 44.24 809.23 C 51.33 808.28 58.93 806.48 64.01 801.06 C 69.23 795.59 69.61 786.14 64.46 780.49 C 58.33 772.99 48.59 770.45 39.90 767.18 C 28.72 762.84 16.92 758.47 8.53 749.52 C 3.90 744.77 1.44 738.43 0.00 732.07 L 0.00 720.82 C 1.45 713.45 4.74 706.37 10.04 700.99 C 15.52 695.14 23.05 691.77 30.70 689.76 Z" />
<path fill="#000000" opacity="1.00" d=" M 500.43 689.74 C 509.21 689.65 518.00 689.60 526.79 689.71 C 539.28 711.10 551.64 732.57 564.35 753.83 C 576.06 732.52 587.41 711.01 599.03 689.65 C 607.63 689.70 616.23 689.57 624.83 689.82 C 599.59 737.29 573.63 784.38 548.69 832.00 L 522.49 832.00 C 532.11 813.91 541.84 795.87 551.52 777.82 C 534.78 748.29 517.12 719.30 500.43 689.74 Z" />
<path fill="#000000" opacity="1.00" d=" M 106.91 721.92 C 116.24 713.90 129.03 712.22 140.89 711.94 C 151.76 712.53 162.87 713.68 172.88 718.27 C 172.66 725.15 173.40 732.07 172.49 738.93 C 160.52 732.83 146.28 728.49 133.04 733.02 C 125.54 735.02 121.95 745.77 127.54 751.46 C 138.30 762.03 154.13 764.33 166.02 773.20 C 170.33 776.52 174.41 780.56 176.26 785.79 C 180.20 796.50 177.09 809.11 169.52 817.45 C 162.61 824.43 153.03 828.13 143.47 829.70 C 133.69 831.22 123.68 831.14 113.91 829.63 C 108.88 829.01 103.86 828.00 99.30 825.74 C 99.36 818.84 99.45 811.93 99.25 805.03 C 110.71 810.01 123.47 813.61 136.01 811.10 C 141.85 810.16 147.72 806.74 150.14 801.15 C 152.26 795.65 149.19 789.45 144.58 786.28 C 132.00 777.77 115.71 775.40 104.90 764.16 C 93.76 752.68 95.06 732.43 106.91 721.92 Z" />
<path fill="#000000" opacity="1.00" d=" M 650.00 712.15 C 665.55 710.33 681.93 714.08 694.55 723.51 C 704.75 731.38 713.05 742.24 716.11 754.92 C 719.81 770.72 718.51 788.15 710.37 802.41 C 707.73 806.95 704.37 811.04 700.77 814.86 C 692.75 822.90 681.93 827.69 670.87 829.79 C 664.66 831.14 658.27 830.52 651.97 830.72 C 638.85 829.74 625.64 825.14 615.85 816.13 C 607.90 808.50 601.64 798.87 599.12 788.06 C 595.76 773.50 596.56 757.64 603.20 744.09 C 612.11 726.47 630.36 714.11 650.00 712.15 M 648.46 731.61 C 638.96 734.01 630.97 741.17 627.36 750.26 C 622.91 761.49 622.63 774.10 625.23 785.81 C 627.12 793.94 631.18 802.09 638.38 806.74 C 652.86 816.56 675.87 813.61 685.14 798.01 C 691.93 786.82 692.58 773.07 690.75 760.41 C 689.37 751.49 685.26 742.61 677.95 737.03 C 669.66 730.77 658.44 728.89 648.46 731.61 Z" />
<path fill="#000000" opacity="1.00" d=" M 417.92 729.90 C 432.57 716.93 452.78 711.78 472.03 712.52 C 483.65 712.15 495.09 714.70 506.23 717.76 C 506.21 724.21 506.27 730.66 506.11 737.12 C 489.59 729.78 470.54 727.91 453.07 732.80 C 446.37 734.73 440.34 738.83 436.17 744.43 C 427.37 755.79 424.68 771.47 428.78 785.20 C 431.31 793.54 436.53 801.31 444.16 805.76 C 456.48 813.19 472.01 813.67 485.53 809.53 C 485.38 800.12 485.44 790.71 485.47 781.30 C 476.22 781.23 466.96 781.30 457.71 781.27 C 457.74 775.53 457.66 769.80 457.61 764.07 C 475.19 763.92 492.78 763.97 510.37 763.97 C 510.35 783.55 510.46 803.13 510.33 822.71 C 491.36 830.00 470.52 832.77 450.40 829.45 C 435.52 826.83 420.72 819.75 411.78 807.18 C 394.91 784.46 397.84 749.72 417.92 729.90 Z" />
<path fill="#000000" opacity="1.00" d=" M 846.16 732.19 C 857.33 720.59 873.30 714.76 889.03 712.93 C 905.07 711.68 921.53 712.74 936.81 718.03 C 936.78 724.41 936.81 730.78 936.65 737.16 C 920.18 729.73 901.14 727.99 883.69 732.79 C 878.28 734.30 873.32 737.30 869.37 741.28 C 855.39 755.81 853.26 780.46 865.10 796.91 C 868.84 802.25 874.34 806.15 880.35 808.60 C 891.63 813.25 904.41 812.93 916.02 809.65 C 916.06 800.19 915.98 790.74 916.04 781.28 C 906.77 781.26 897.50 781.29 888.23 781.27 C 888.21 775.51 888.21 769.76 888.22 764.01 C 906.14 763.95 924.07 763.97 942.00 763.97 L 942.00 822.29 C 928.30 827.48 913.75 831.00 899.02 830.64 C 883.84 831.04 868.14 828.10 855.31 819.65 C 842.90 811.62 834.91 797.90 832.25 783.53 C 828.88 765.53 833.98 745.95 846.16 732.19 Z" />
<path fill="#000000" opacity="1.00" d=" M 172.18 827.13 C 186.36 789.50 200.71 751.93 215.53 714.56 C 226.04 714.75 236.54 714.69 247.05 714.61 C 255.73 735.60 263.59 756.91 271.78 778.08 C 277.92 794.45 284.69 810.58 290.37 827.12 C 282.16 827.14 273.96 827.02 265.75 827.19 C 262.53 818.84 259.35 810.47 256.11 802.13 C 239.57 802.14 223.03 802.01 206.50 802.17 C 203.39 810.51 200.11 818.79 196.98 827.12 C 188.71 827.12 180.45 827.09 172.18 827.13 M 213.54 784.07 C 225.46 784.17 237.39 784.03 249.31 784.18 C 243.01 768.83 237.71 753.09 231.08 737.87 C 225.52 753.38 219.28 768.63 213.54 784.07 Z" />
<path fill="#000000" opacity="1.00" d=" M 292.39 827.05 C 292.42 789.59 292.37 752.12 292.42 714.65 C 303.15 714.70 313.87 714.67 324.60 714.66 C 339.87 741.30 355.68 767.63 370.68 794.42 C 371.06 767.86 370.77 741.29 370.87 714.72 C 378.46 714.64 386.06 714.68 393.65 714.64 C 393.79 752.12 393.69 789.60 393.71 827.08 C 383.58 826.99 373.45 827.41 363.34 826.85 C 347.19 799.54 331.63 771.88 315.31 744.68 C 315.12 772.17 315.37 799.66 315.16 827.15 C 307.57 827.05 299.98 827.16 292.39 827.05 Z" />
<path fill="#000000" opacity="1.00" d=" M 722.96 714.68 C 733.67 714.65 744.38 714.65 755.10 714.64 C 770.41 741.15 785.97 767.52 801.10 794.13 C 801.84 767.65 801.18 741.15 801.47 714.66 C 809.06 714.66 816.66 714.65 824.26 714.67 C 824.27 752.14 824.27 789.62 824.26 827.10 C 814.19 827.05 804.12 827.27 794.06 826.97 C 777.64 799.78 762.28 771.97 745.90 744.76 C 745.67 772.21 745.88 799.66 745.77 827.12 C 738.16 827.15 730.56 827.09 722.95 827.10 C 722.95 789.62 722.94 752.15 722.96 714.68 Z" />
</g>
</svg>
